<?xml version="1.0" standalone="no"?>
<!DOCTYPE svg PUBLIC "-//W3C//DTD SVG 20010904//EN"
 "http://www.w3.org/TR/2001/REC-SVG-20010904/DTD/svg10.dtd">
<svg version="1.1" viewBox="0 0 219.000000 188.000000" width="1280" height="1280" xmlns="http://www.w3.org/2000/svg" preserveAspectRatio="xMidYMid meet">
   <style>
    path {
      fill: #000000;
    }
    @media (prefers-color-scheme: dark) {
      path {
        fill: #ffffff;
      }
    }
  </style>

<g transform="translate(0.000000,188.000000) scale(0.100000,-0.100000)"
fill="#000000" stroke="none">
<path d="M145 1606 c-14 -20 -15 -100 -13 -669 l3 -647 33 -32 32 -33 898 -3
897 -3 17 22 c24 28 25 154 2 187 l-15 22 -815 0 -814 0 0 573 c0 543 -1 575
-18 590 -14 13 -39 17 -105 17 -80 0 -88 -2 -102 -24z"/>
<path d="M1680 1604 c-6 -15 -10 -197 -10 -447 0 -366 2 -426 16 -445 14 -20
24 -22 104 -22 67 0 92 4 104 16 14 14 16 68 16 450 0 281 -4 442 -10 455 -10
17 -22 19 -111 19 -98 0 -100 0 -109 -26z"/>
<path d="M1000 1514 c-39 -16 -40 -27 -40 -409 0 -319 2 -374 16 -393 14 -20
24 -22 103 -22 72 0 91 3 104 18 15 17 17 59 17 393 0 307 -3 379 -14 394 -12
16 -28 20 -93 22 -43 1 -85 0 -93 -3z"/>
<path d="M1336 1264 c-14 -13 -16 -53 -16 -279 0 -226 2 -266 16 -279 11 -12
36 -16 95 -16 129 0 119 -24 119 295 0 319 10 295 -119 295 -59 0 -84 -4 -95
-16z"/>
<path d="M622 1028 c-8 -8 -12 -58 -12 -159 0 -182 -2 -179 115 -179 117 0
115 -3 115 179 0 101 -4 151 -12 159 -8 8 -46 12 -103 12 -57 0 -95 -4 -103
-12z"/>
</g>
</svg>
