<?xml version="1.0" encoding="UTF-8"?>
<svg version="1.1" xmlns="http://www.w3.org/2000/svg" width="212" height="164">
  <style>
    path {
      fill: #000000;
    }
    @media (prefers-color-scheme: dark) {
      path {
        fill: #ffffff;
      }
    }
  </style>
<path d="M0 0 C2.68242014 2.00449941 4.93750285 4.08745984 7.1484375 6.60546875 C7.59316406 7.05921875 8.03789063 7.51296875 8.49609375 7.98046875 C17.93367086 18.04721767 23.58658177 32.21052227 29.6484375 44.48046875 C30.36289413 45.9194631 31.07773716 47.35826567 31.79296875 48.796875 C37.54394923 60.37138104 37.54394923 60.37138104 40.31591797 66.02172852 C41.0178314 67.44420883 41.71981449 68.86665477 42.421875 70.2890625 C42.7360437 70.93418793 43.0502124 71.57931335 43.37390137 72.24398804 C47.37396526 80.32328431 52.44144394 88.63873957 60.1484375 93.60546875 C63.45040827 94.10049237 64.77257606 93.85564019 67.578125 91.98828125 C79.3610506 81.10883877 87.17430249 67.33542137 93.8359375 52.85546875 C95.88738596 48.71768325 97.7395779 46.42088153 102.1484375 44.60546875 C105.07973467 44.29362863 107.40073417 44.52038845 110.1484375 45.60546875 C112.72675431 48.12089978 114.06627821 49.87710465 114.24145508 53.56225586 C113.63733534 60.05449963 111.38562686 64.99195843 108.2734375 70.66796875 C107.78601074 71.57683838 107.29858398 72.48570801 106.79638672 73.42211914 C98.37006281 88.83075601 87.82795913 107.25461682 70.4609375 113.60546875 C61.88716011 115.92721732 55.0354321 114.46210488 47.1484375 110.60546875 C28.3332466 98.8330282 19.03119891 70.69743446 10.02075195 51.70092773 C1.30735603 31.06601465 1.30735603 31.06601465 -13.8515625 15.60546875 C-18.12475755 15.32058908 -20.52358419 16.87922414 -23.7265625 19.48046875 C-35.56940226 30.65169188 -42.68317836 46.22389806 -49.8515625 60.60546875 C-51.80881761 63.59285813 -53.06115953 63.657009 -56.6640625 64.54296875 C-59.90552731 64.81209406 -61.11583846 64.49975837 -64.2890625 63.23046875 C-67.42274594 60.020354 -67.55799095 58.32885962 -67.91625977 54.00878906 C-67.81012457 50.066167 -66.40414631 47.12009864 -64.6015625 43.66796875 C-64.24457275 42.94996094 -63.88758301 42.23195312 -63.51977539 41.4921875 C-55.12734212 24.99628466 -44.69298332 4.5739899 -26.9765625 -3.39453125 C-17.04540839 -6.57250057 -8.75691902 -5.81492572 0 0 Z " fill="#0F0F0F" transform="translate(80.8515625,25.39453125)"/>
</svg>
